<mxfile host="app.diagrams.net" modified="2024-02-17T16:05:45.701Z" agent="Mozilla/5.0 (Windows NT 10.0; Win64; x64) AppleWebKit/537.36 (KHTML, like Gecko) Chrome/121.0.0.0 Safari/537.36" etag="t0dp_xDxe0q-gEPWbjUO" version="23.1.4" type="device">
  <diagram name="Page-1" id="8GGnuzFGpqsuGFJDp-sZ">
    <mxGraphModel dx="1354" dy="782" grid="1" gridSize="10" guides="1" tooltips="1" connect="1" arrows="1" fold="1" page="1" pageScale="1" pageWidth="827" pageHeight="1169" math="0" shadow="0">
      <root>
        <mxCell id="0" />
        <mxCell id="1" parent="0" />
        <mxCell id="oKAifLFdMI1RVXaOXZNm-7" value="" style="swimlane;startSize=0;" vertex="1" parent="1">
          <mxGeometry x="190" y="110" width="460" height="910" as="geometry" />
        </mxCell>
        <mxCell id="oKAifLFdMI1RVXaOXZNm-13" value="Use Case" style="ellipse;whiteSpace=wrap;html=1;" vertex="1" parent="oKAifLFdMI1RVXaOXZNm-7">
          <mxGeometry x="40" y="40" width="140" height="70" as="geometry" />
        </mxCell>
        <mxCell id="oKAifLFdMI1RVXaOXZNm-14" value="Use Case" style="ellipse;whiteSpace=wrap;html=1;" vertex="1" parent="oKAifLFdMI1RVXaOXZNm-7">
          <mxGeometry x="300" y="10" width="140" height="70" as="geometry" />
        </mxCell>
        <mxCell id="oKAifLFdMI1RVXaOXZNm-15" value="Reader" style="ellipse;whiteSpace=wrap;html=1;" vertex="1" parent="oKAifLFdMI1RVXaOXZNm-7">
          <mxGeometry x="60" y="250" width="140" height="70" as="geometry" />
        </mxCell>
        <mxCell id="oKAifLFdMI1RVXaOXZNm-16" value="Use Case" style="ellipse;whiteSpace=wrap;html=1;" vertex="1" parent="oKAifLFdMI1RVXaOXZNm-7">
          <mxGeometry x="280" y="140" width="140" height="70" as="geometry" />
        </mxCell>
        <mxCell id="oKAifLFdMI1RVXaOXZNm-17" value="Use Case" style="ellipse;whiteSpace=wrap;html=1;" vertex="1" parent="oKAifLFdMI1RVXaOXZNm-7">
          <mxGeometry x="50" y="390" width="140" height="70" as="geometry" />
        </mxCell>
        <mxCell id="oKAifLFdMI1RVXaOXZNm-18" value="Use Case" style="ellipse;whiteSpace=wrap;html=1;" vertex="1" parent="oKAifLFdMI1RVXaOXZNm-7">
          <mxGeometry x="280" y="390" width="140" height="70" as="geometry" />
        </mxCell>
        <mxCell id="oKAifLFdMI1RVXaOXZNm-19" value="Use Case" style="ellipse;whiteSpace=wrap;html=1;" vertex="1" parent="oKAifLFdMI1RVXaOXZNm-7">
          <mxGeometry x="50" y="550" width="140" height="70" as="geometry" />
        </mxCell>
        <mxCell id="oKAifLFdMI1RVXaOXZNm-20" value="Use Case" style="ellipse;whiteSpace=wrap;html=1;" vertex="1" parent="oKAifLFdMI1RVXaOXZNm-7">
          <mxGeometry x="300" y="550" width="140" height="70" as="geometry" />
        </mxCell>
        <object label="Vehical" Vehical="" id="oKAifLFdMI1RVXaOXZNm-9">
          <mxCell style="shape=umlActor;verticalLabelPosition=bottom;verticalAlign=top;html=1;outlineConnect=0;" vertex="1" parent="1">
            <mxGeometry x="90" y="420" width="30" height="60" as="geometry" />
          </mxCell>
        </object>
        <object label="Server" Vehical="" id="oKAifLFdMI1RVXaOXZNm-10">
          <mxCell style="shape=umlActor;verticalLabelPosition=bottom;verticalAlign=top;html=1;outlineConnect=0;" vertex="1" parent="1">
            <mxGeometry x="730" y="420" width="30" height="60" as="geometry" />
          </mxCell>
        </object>
        <mxCell id="oKAifLFdMI1RVXaOXZNm-27" value="" style="endArrow=none;html=1;rounded=0;exitX=1;exitY=0.3333333333333333;exitDx=0;exitDy=0;exitPerimeter=0;entryX=0;entryY=0.5;entryDx=0;entryDy=0;" edge="1" parent="1" source="oKAifLFdMI1RVXaOXZNm-9" target="oKAifLFdMI1RVXaOXZNm-15">
          <mxGeometry relative="1" as="geometry">
            <mxPoint x="140" y="520" as="sourcePoint" />
            <mxPoint x="300" y="520" as="targetPoint" />
            <Array as="points">
              <mxPoint x="220" y="400" />
            </Array>
          </mxGeometry>
        </mxCell>
      </root>
    </mxGraphModel>
  </diagram>
</mxfile>
